<svg xmlns="http://www.w3.org/2000/svg" width="512" height="512" viewBox="0 0 512 512">
  <!-- Background circles -->
  <circle cx="256" cy="256" r="220" fill="#f9fafb" />
  <circle cx="256" cy="256" r="190" fill="#f3f4f6" />
  
  <!-- Decorative elements -->
  <circle cx="145" cy="156" r="10" fill="#e2e8f0" />
  <circle cx="384" cy="330" r="12" fill="#e2e8f0" />
  <circle cx="320" cy="120" r="8" fill="#e2e8f0" />
  <circle cx="180" cy="370" r="15" fill="#e2e8f0" />
  
  <!-- 404 text -->
  <text x="256" y="266" font-family="sans-serif" font-size="120" font-weight="bold" fill="#1e293b" text-anchor="middle" dominant-baseline="middle">404</text>
  
  <!-- Decorative lines -->
  <rect x="186" y="290" width="140" height="4" rx="2" fill="#cbd5e1" />
  <rect x="216" y="310" width="80" height="4" rx="2" fill="#cbd5e1" />
  
  <!-- Compass needle -->
  <g transform="translate(256, 120)">
    <circle cx="0" cy="0" r="40" fill="#e2e8f0" />
    <circle cx="0" cy="0" r="35" fill="#f8fafc" />
    <path d="M0,-30 L15,0 L0,5 L-15,0 Z" fill="#3b82f6" />
    <path d="M0,30 L-15,0 L0,-5 L15,0 Z" fill="#ef4444" />
    <circle cx="0" cy="0" r="5" fill="#1e293b" />
  </g>
  
  <!-- Path elements -->
  <path d="M130,340 Q180,300 256,330 Q330,360 380,320" stroke="#cbd5e1" stroke-width="3" fill="none" stroke-dasharray="5,5" />
  <circle cx="130" cy="340" r="8" fill="#3b82f6" />
  <circle cx="380" cy="320" r="8" fill="#ef4444" />
  
  <!-- Question marks -->
  <text x="170" y="220" font-family="sans-serif" font-size="40" font-weight="bold" fill="#cbd5e1" text-anchor="middle" dominant-baseline="middle">?</text>
  <text x="350" y="220" font-family="sans-serif" font-size="40" font-weight="bold" fill="#cbd5e1" text-anchor="middle" dominant-baseline="middle">?</text>
</svg>