<svg xmlns="http://www.w3.org/2000/svg" width="512" height="512" viewBox="0 0 512 512">
  <!-- Background circles -->
  <circle cx="256" cy="256" r="220" fill="#f9fafb" />
  <circle cx="256" cy="256" r="190" fill="#f3f4f6" />
  
  <!-- Decorative elements -->
  <circle cx="145" cy="156" r="10" fill="#e2e8f0" />
  <circle cx="384" cy="330" r="12" fill="#e2e8f0" />
  <circle cx="320" cy="120" r="8" fill="#e2e8f0" />
  <circle cx="180" cy="370" r="15" fill="#e2e8f0" />
  
  <!-- Server rack -->
  <rect x="186" y="170" width="140" height="200" rx="5" fill="#e2e8f0" />
  <rect x="196" y="180" width="120" height="180" rx="3" fill="#f8fafc" />
  
  <!-- Server lights -->
  <circle cx="210" cy="200" r="5" fill="#ef4444" />
  <circle cx="210" cy="220" r="5" fill="#3b82f6" />
  <circle cx="210" cy="240" r="5" fill="#ef4444" />
  <circle cx="210" cy="260" r="5" fill="#3b82f6" />
  <circle cx="210" cy="280" r="5" fill="#ef4444" />
  <circle cx="210" cy="300" r="5" fill="#3b82f6" />
  <circle cx="210" cy="320" r="5" fill="#ef4444" />
  <circle cx="210" cy="340" r="5" fill="#3b82f6" />
  
  <!-- Server slots -->
  <rect x="230" y="195" width="70" height="10" rx="2" fill="#e2e8f0" />
  <rect x="230" y="215" width="70" height="10" rx="2" fill="#e2e8f0" />
  <rect x="230" y="235" width="70" height="10" rx="2" fill="#e2e8f0" />
  <rect x="230" y="255" width="70" height="10" rx="2" fill="#e2e8f0" />
  <rect x="230" y="275" width="70" height="10" rx="2" fill="#e2e8f0" />
  <rect x="230" y="295" width="70" height="10" rx="2" fill="#e2e8f0" />
  <rect x="230" y="315" width="70" height="10" rx="2" fill="#e2e8f0" />
  <rect x="230" y="335" width="70" height="10" rx="2" fill="#e2e8f0" />
  
  <!-- Warning symbol -->
  <polygon points="256,100 280,140 232,140" fill="#f59e0b" />
  <text x="256" y="134" font-family="sans-serif" font-size="20" font-weight="bold" fill="white" text-anchor="middle" dominant-baseline="middle">!</text>
  
  <!-- Binary codes background -->
  <text x="120" y="400" font-family="monospace" font-size="10" fill="#cbd5e1">01001001 01110100 00100111 01110011</text>
  <text x="120" y="415" font-family="monospace" font-size="10" fill="#cbd5e1">01101110 01101111 01110100 00100000</text>
  <text x="320" y="400" font-family="monospace" font-size="10" fill="#cbd5e1">01110111 01101111 01110010 01101011</text>
  <text x="320" y="415" font-family="monospace" font-size="10" fill="#cbd5e1">01101001 01101110 01100111 00100001</text>
</svg>